<svg xmlns="http://www.w3.org/2000/svg" width="303.196" height="270.624" viewBox="0 0 303.196 270.624"><defs><style>.a{fill:#fdd594;}.a,.c{fill-rule:evenodd;}.b,.c{fill:#fff;}</style></defs><path class="a" d="M1620.415-477.867a54.593,54.593,0,0,0-.857-6.734,60.478,60.478,0,0,0-9.36-22.4,69.195,69.195,0,0,0-18.2-18.243c-19.272-13.262-43.156-16.253-65.809-11.936-18.447,3.514-35.7,12.573-46.9,27.953-11.3,15.522-14.261,34.518-12.31,53.293.327,3.15.745,6.275,1.237,9.4a226.641,226.641,0,0,0,5.428,28.924q.824,3.311,1.717,6.6c-10.753-1.187-22.7-3.461-32.424-7.931l-1.273-.585-1.847,4.037,1.267.583c11.361,5.224,23.92,8.644,36.227,10.842,1.7,5.871,3.531,11.706,5.431,17.516,2.524,7.714,5.246,15.359,7.969,23,6.716,18.858,13.493,37.841,16.932,57.626.474,5.077.64,12.085-1.434,16.851a6.871,6.871,0,0,1-3.543,3.919,7.551,7.551,0,0,1-5.454-.516c-6.988-2.936-14.056-11.994-18.2-18.06-1.663-2.434-3.245-4.924-4.769-7.447q-1.7-2.816-3.309-5.684a256.985,256.985,0,0,1-17.287-37.045,332.973,332.973,0,0,1-12.352-42.388l-.385-1.7-4.327,1.013.155.68-.5.119.318,1.355c3.4,14.474,3.9,30.379,2.705,45.16-1.395,13.791-4.592,28.25-10.16,41.01-3.588,8.225-8.719,16.928-15.718,22.708-5.994,4.951-12.9,7.317-20.649,5.932-5.9-1.053-11.4-4.1-16.163-7.688,6.1-8.026,9.679-17.876,11.553-27.7a71.046,71.046,0,0,0,.258-25.1l-.28-1.521c-.164-2.061-.419-4.115-.768-6.153-1.195-6.976-3.594-14.248-7.573-20.152-3.329-4.937-8.033-9.229-14.048-10.376a16.86,16.86,0,0,0-6.037-.043,20.419,20.419,0,0,0-9.874,4.544c-4.688,3.966-7.316,9.757-8.59,15.659a57.278,57.278,0,0,0-.059,21.435l.263,1.443q.247,3.132.783,6.232a83,83,0,0,0,18.171,38.822q.442.522.891,1.041l-.278.179a31.34,31.34,0,0,1-14.01,5.02,20.325,20.325,0,0,1-12.489-2.789c-6.474-4-9.63-11.335-10.93-18.56a41.273,41.273,0,0,1-.323-11.247,92.354,92.354,0,0,1,6.285-23.507l.522-1.3-4.128-1.644-.519,1.294a99.663,99.663,0,0,0-5.981,20.255q-.389,2.3-.612,4.621c-1.271,11.272.1,23.6,7.008,33a28.68,28.68,0,0,0,14.841,10.661,29.191,29.191,0,0,0,18.071-.554,35.728,35.728,0,0,0,11.233-6.526c6.133,5.471,13.546,10.346,21.718,11.812,9.1,1.633,17.22-1.287,24.116-7.243,7.535-6.507,13-16.054,16.831-25.128,6.276-14.858,9.73-31.841,11.047-47.876.521-5.11.813-10.267.857-15.428q2.468,8.242,5.306,16.368a256.844,256.844,0,0,0,18.285,41.164c1.1,1.948,2.217,3.883,3.374,5.8,1.567,2.594,3.2,5.154,4.907,7.657,4.708,6.891,12.231,16.325,20.149,19.653a11.715,11.715,0,0,0,8.745.566,11.092,11.092,0,0,0,6.043-6.3c3.27-7.511,2.126-18.9.745-26.721l-.032-.182c-.238-2.507-.587-5-1.014-7.486-3.468-20.178-10.334-39.467-17.182-58.691-2.71-7.609-5.42-15.219-7.931-22.9q-1.216-3.72-2.388-7.454,5.712.839,11.466,1.365a212.054,212.054,0,0,0,59.749-2.743c26.893-5.323,56.181-19.092,64.664-47.45A52.89,52.89,0,0,0,1620.415-477.867Zm-267.6,107.232a15.772,15.772,0,0,1,7.652-3.51,12.238,12.238,0,0,1,4.377.027c3.8.725,6.959,3.224,9.4,6.182a18.626,18.626,0,0,0-7.441-3.294,17.109,17.109,0,0,0-6.118-.046,20.662,20.662,0,0,0-9.971,4.59,22.021,22.021,0,0,0-3.02,3.126A19.6,19.6,0,0,1,1352.814-370.635Zm-6.988,34.384a48.256,48.256,0,0,1,.776-13.673c1.06-4.913,3.205-9.9,7.12-13.206a16,16,0,0,1,7.75-3.556,12.478,12.478,0,0,1,4.459.03c4.792.914,8.563,4.588,11.2,8.5a46.75,46.75,0,0,1,6.565,16.74,66.816,66.816,0,0,1-.98,17.523c-2.04,10.69-6.834,20.987-14.571,28.726-1.885-1.921-3.69-3.922-5.428-5.976A78.682,78.682,0,0,1,1345.825-336.251Zm24.207,49.422-3.089,2.615a31.11,31.11,0,0,1-9.764,5.686,24.54,24.54,0,0,1-15.188.489,23.1,23.1,0,0,1-7.366-3.773,25.735,25.735,0,0,0,12.739,2.09,35.929,35.929,0,0,0,16.124-5.733l.3-.2,4.5-2.908-.079-.092,3.226-3.227a53.686,53.686,0,0,0,7.979-10.247,51.858,51.858,0,0,1-6.553,11.617l-2.81,3.7Zm42.71,7.215c-5.823,5.029-12.547,7.566-20.25,6.183-7.286-1.308-14-5.854-19.44-10.7l-2.71-2.419,3.426,2.584c5.355,4.038,11.487,7.364,18.148,8.554a28.5,28.5,0,0,0,21.222-4.547Q1412.943-279.786,1412.743-279.614Zm94.318-1.86a6.658,6.658,0,0,1-3.427,3.8,7.324,7.324,0,0,1-5.288-.508c-3.335-1.4-6.709-4.233-9.772-7.47a28.2,28.2,0,0,0,6.833,4.286,12,12,0,0,0,8.911.577,9.565,9.565,0,0,0,3.273-2.1C1507.433-282.4,1507.256-281.924,1507.061-281.474Zm-24.005-225.009c10.5-14.416,26.748-22.833,44.009-26.12,21.391-4.075,44.073-1.343,62.3,11.2a66.57,66.57,0,0,1,9.653,8.078c-19.454-16.638-46.443-21.219-71.815-16.386-18.495,3.523-35.8,12.611-47.034,28.035q-.667.916-1.3,1.846A58.45,58.45,0,0,1,1483.056-506.483Zm70.784,97.49a199.991,199.991,0,0,1-43.213,3.548,240.342,240.342,0,0,0,28.272-3.179c24.562-4.251,57.655-14.375,72.442-35.866l.2-.3C1600.74-423.919,1576.105-413.4,1553.84-408.993ZM1607.5-447.13c-13.973,20.307-46.366,29.93-69.4,33.916a231.5,231.5,0,0,1-56.832,2.773c-1.564-5.272-3.036-10.574-4.363-15.909-1.712-6.878-3.192-13.806-4.3-20.807l-.169-1.567c-1.929-17.713.818-35.562,11.487-50.212,10.527-14.454,26.816-22.9,44.14-26.2,28.084-5.35,58.421,1.326,76.764,24.559a56.536,56.536,0,0,1,11.085,22.921l.079.361A47.736,47.736,0,0,1,1607.5-447.13Z" transform="translate(-1318.375 539.021)"/><g transform="translate(228.34 107.466)"><path class="b" d="M1691.84-295.795l-7.457,3.875a.972.972,0,0,1-.206.079.877.877,0,0,1,.206.077l7.457,3.874a2.055,2.055,0,0,0,1.27.257c2.9-.391,7.84-2.843,10.885-4.1-2.9-1.247-8.149-3.947-10.884-4.316A2.059,2.059,0,0,0,1691.84-295.795Z" transform="translate(-1684.178 340.257)"/><path class="b" d="M1686.27-365.312a1.491,1.491,0,0,0,.455-.3c.4-.393.259-.843-.054-1.245l-.326,1.116A1.974,1.974,0,0,0,1686.27-365.312Z" transform="translate(-1684.964 366.859)"/><path class="b" d="M1686.345-213.783l.326,1.115c.313-.4.457-.853.054-1.245a1.5,1.5,0,0,0-.455-.3A1.98,1.98,0,0,0,1686.345-213.783Z" transform="translate(-1684.964 309.498)"/></g><g transform="translate(147.087 52.829)"><path class="c" d="M1662.3-315.107c-.179-.289-.334-.567-.482-.842q-3.569.33-7.153.541A5.591,5.591,0,0,0,1662.3-315.107Z" transform="translate(-1591.835 402.365)"/><path class="c" d="M1599.48-316.179c-.818-.075-1.634-.165-2.452-.25-.086,5.087-.156,9.406-.156,12.373,10.834-2.138,11.359,10.062,1.591,9.336q.565,1.593,1.132,3.185c0-.14,0-.281,0-.421,11.317-.161,11.317-14.913,0-15.074.016-3.042.056-6.086.1-9.131Z" transform="translate(-1570.116 402.545)"/><path class="c" d="M1628.112-312.629a23.754,23.754,0,0,0,19.271,11.147c9.682.237,17.869-6.781,15.915-16.833-.892.138-1.787.266-2.683.391,1.712,8.411-5.187,13.927-13.167,13.732a21.052,21.052,0,0,1-17-9.819,14.418,14.418,0,0,1-.926-1.926c-.974-.009-1.947-.029-2.92-.05A18.412,18.412,0,0,0,1628.112-312.629Z" transform="translate(-1581.287 403.254)"/><path class="c" d="M1680.672-454.388h-77.789c-.556,9.257-10.909,12.355-12.773.06h-15.283q-.564,1.345-1.062,2.71h14.142c3.162,11.725,14.991,9.823,17.313-.059h73.955a26.174,26.174,0,0,0,11.083,9.232c-3.717,8.89-8.793,27.862-9.316,43.869q1.416-.78,2.791-1.6c.907-16.685,6.495-36.68,10.175-43.711A24.019,24.019,0,0,1,1680.672-454.388Z" transform="translate(-1561.433 454.388)"/><path class="c" d="M1667.037-320.136c.29,2.826-.441,6.22-2.691,10.678l-3.788,7.5,7.457-3.875a2.947,2.947,0,0,1,1.809-.35c2.444.33,8.81,3.408,11.32,4.468.6.252,1.205.509,1.82.763-.579.23-1.153.461-1.72.689-2.648,1.067-8.823,3.938-11.421,4.29a2.944,2.944,0,0,1-1.808-.351l-7.457-3.875,3.788,7.5c7.9,15.644-2.884,18.215-11.051,28.968-4.376,5.762-2.924,13.953,5.475,13.672l1.52-.051c-6.781,2.43-16.459-6.566-8.739-16.746l3.641-4.8-6.008.46a5.074,5.074,0,0,1-2.9-.6c-6.718-3.68-3.986-12.061-.009-12.084-1.084,2.913-1.174,6.15,1.468,8.4a6.9,6.9,0,0,0,3.276,1.506c5.661,1.012,9.31-3.531,10.422-8.569,2.271-10.279-6.017-17.5-15.835-17.256a23.754,23.754,0,0,0-19.271,11.147c-2.225,3.759-3,8.929-3.383,13.227-.626,6.989-.935,14.157-1.073,21.206q1.435,5.128,2.658,10.313c-.15-11.388.511-24.548,1.114-31.276.414-4.618,1.225-9.064,3.016-12.087a21.053,21.053,0,0,1,17-9.819c8.054-.2,15.01,5.42,13.124,13.961-.843,3.815-3.325,7.2-7.3,6.486-2.812-.5-4.81-3.3-1.517-8.643-8.008-6.057-16.262,9.7-5,15.867a7.748,7.748,0,0,0,4.405.925c-10.45,13.778,5.154,26.044,14.045,19.776,3.9-2.749,3.436-6,1.615-7.78-2.974-2.9-7.684-.757-6.373,3.73-5.984.2-6.237-5.36-3.225-9.325,7.262-9.565,20.252-14.12,11.311-31.828a5.626,5.626,0,0,0,3.421.632c3.485-.471,14.562-5.984,21.032-7.625-6.47-1.642-17.548-7.486-21.032-7.957a5.636,5.636,0,0,0-3.421.632c2.562-5.075,3.318-9.067,2.929-12.408-.178.036-.356.076-.534.11C1668.455-320.394,1667.745-320.268,1667.037-320.136Zm-3.877,65.581c1.3,1.271-.027,2.7-1.148,3.527l-.73-2.5C1660.778-255.253,1662.12-255.568,1663.16-254.554Z" transform="translate(-1579.516 404.129)"/><path class="c" d="M1585.173-421.708c1.921,7.394,1.886,29.69,1.628,48.346.893.024,1.788.039,2.683.051.063-3.767.121-7.532.141-11.3.041-7.416.022-14.862-.262-22.273-.182-4.714-.383-10.959-1.566-15.511-2.379-9.155-9.95-12.69-18.108-14.557q-.289,1.312-.529,2.635C1576.415-432.653,1583.137-429.547,1585.173-421.708Z" transform="translate(-1559.703 447.834)"/><path class="c" d="M1746.182-339.673q-1.186.652-2.395,1.27c1.66,4.638,4.448,7.94,8.757,9.04,1.106,4.587-7.39,6.354-13.191-3.966a18.783,18.783,0,0,1-1.133-2.434q-1.239.542-2.491,1.053a21.347,21.347,0,0,0,1.261,2.71c8.51,15.14,21.885,8.407,17.508.248C1750.346-332.245,1747.705-335.209,1746.182-339.673Z" transform="translate(-1622.297 411.28)"/><path class="c" d="M1570.841-135.022H1556.72v-6.794c2.527-.382,5.129-.815,7.667-1.414-.338-.48-.667-.954-.984-1.419-.218-.319-.424-.647-.639-.968-2.944.634-5.954,1.049-8.755,1.461v11.844h19.373Q1572.075-133.628,1570.841-135.022Z" transform="translate(-1554.009 338.357)"/><path class="c" d="M1594.19-193.343c1.183-4.552,1.385-10.8,1.566-15.511.283-7.411.3-14.857.261-22.273,0-.415-.011-.831-.014-1.247q-1.366-4.06-2.785-8.1c.233,18.245.2,39.305-1.653,46.45a14.511,14.511,0,0,1-5.394,8.138c.571.7,1.162,1.394,1.768,2.08A17.021,17.021,0,0,0,1594.19-193.343Z" transform="translate(-1566.096 374.003)"/><path class="c" d="M1555.33-454.292h-1.321v6.919Q1554.518-450.867,1555.33-454.292Z" transform="translate(-1554.009 454.352)"/><path class="c" d="M1715.138-256.893c4.377-8.159-9-14.893-17.508.248-3.145,5.594-4.068,14.04-3.91,24.3-10.637-2.73-17.536,2.352-18.594,12.864,8.281-1.705,14.987,1.128,17.1,7.067,6.234,17.52-16.248,21.211-28.161,21.8-12.748.626-26.29-2.147-32.186-10.233.22,1.5.412,3.079.565,4.687,7.982,7.176,21.838,8.74,31.754,8.253,14.156-.7,37.586-5.723,30.581-25.412-2.517-7.074-9.45-9.64-16.326-9.3,1.853-6.549,7-9.039,14.593-7.092l3.439.883-.054-3.551c-.106-6.843.129-16.825,3.562-22.931,5.8-10.32,14.3-8.552,13.191-3.966-19.3,4.926-8.138,53.91-1.421,69.973a26.179,26.179,0,0,0-11.084,9.233h-68.888a25.011,25.011,0,0,1-.8,2.711h71.187a24.015,24.015,0,0,1,13.239-10.5C1708.822-200.456,1696.1-254.64,1715.138-256.893Z" transform="translate(-1582.936 383.47)"/><path class="c" d="M1610.962-140.422a7.472,7.472,0,0,0-9.24.952,17.748,17.748,0,0,0,2.553,1.384,4.715,4.715,0,0,1,5.171-.066A6.769,6.769,0,0,0,1610.962-140.422Z" transform="translate(-1571.939 336.845)"/><path class="c" d="M1692.95-393.071l.054-3.55-3.439.883c-7.589,1.948-12.74-.543-14.592-7.091,6.876.335,13.809-2.231,16.326-9.305,7.006-19.688-16.425-24.717-30.581-25.412-13.492-.663-34.292,2.458-37.641,18.368-1.528,7.264-1.4,17.138-1.3,24.593.094,6.877.336,13.906.862,20.8q1.358-.062,2.716-.139c-.873-11.987-1.63-35.182.372-44.7,2.68-12.727,19.358-16.981,34.855-16.22,11.913.585,34.394,4.275,28.161,21.8-2.113,5.938-8.819,8.771-17.1,7.066,1.057,10.512,7.957,15.594,18.594,12.864q-.04,2.634.022,5.1,1.351-.589,2.681-1.21C1692.925-390.577,1692.932-391.874,1692.95-393.071Z" transform="translate(-1579.455 448.09)"/><path class="c" d="M1668.4-360.82c-3.012-3.965-2.759-9.525,3.225-9.325-1.312,4.487,3.4,6.629,6.372,3.73,1.822-1.776,2.285-5.031-1.615-7.78-8.891-6.267-24.495,6-14.045,19.776a7.749,7.749,0,0,0-4.405.926,12.525,12.525,0,0,0-1.6,1.046q4.249-.576,8.45-1.3c.425-.074.859-.153,1.291-.23l-1.58-2.084c-7.72-10.179,1.958-19.175,8.738-16.746l-1.52-.051c-8.4-.281-9.852,7.911-5.475,13.673a48.784,48.784,0,0,0,3.862,4.442q1.6-.321,3.245-.677A50.059,50.059,0,0,1,1668.4-360.82Zm5.828-8.565.73-2.5c1.121.826,2.452,2.256,1.148,3.527C1675.068-367.341,1673.725-367.657,1674.23-369.386Z" transform="translate(-1592.463 424.885)"/></g><g transform="translate(150.702 56.444)"><path class="b" d="M1652.96-406.02c2.167,5.69,7.194,6.8,13.11,5.284l3.439-.883a.877.877,0,0,1,.784.166.878.878,0,0,1,.345.723l-.054,3.549c-.016,1.066-.023,2.216-.011,3.411q2.13-1.017,4.19-2.118c.487-16.416,5.849-35.763,9.092-43.932a26.946,26.946,0,0,1-10.4-8.779h-72.781c-2.951,10.367-15.182,11.317-18.69.059H1559.8v5.114c10.7,1.659,22.235,4.423,25.354,16.429,1.262,4.855,1.4,10.684,1.594,15.7.285,7.433.3,14.874.262,22.312-.02,3.767-.078,7.533-.141,11.3q5.79.057,11.6-.185c-.528-6.928-.767-13.885-.862-20.829-.108-7.876-.3-17.1,1.316-24.792,3.462-16.446,24.6-19.77,38.57-19.084,14.9.732,38.629,6.265,31.387,26.617C1666.411-409.012,1659.858-406.048,1652.96-406.02Z" transform="translate(-1559.8 448.598)"/><path class="b" d="M1744.929-336.932q-1.918.958-3.884,1.833a18.037,18.037,0,0,0,1.094,2.356c1.554,2.767,4,5.772,7.12,6.815,1.251.417,3.414.63,4.232-.7a1.754,1.754,0,0,0,.244-.991C1749.409-328.943,1746.608-332.316,1744.929-336.932Z" transform="translate(-1627.909 406.636)"/></g><path class="b" d="M1670.8-348.368l1.992-.379a46.117,46.117,0,0,1-3.528-4.078,12.085,12.085,0,0,1-2.574-7.593c-1.061,3.308.12,6.79,2.27,9.624Z" transform="translate(-1449.118 471.905)"/><g transform="translate(150.702 136.963)"><path class="b" d="M1567.127-140.532c-2.413.588-4.891,1.025-7.327,1.4v5.114h12.419C1570.358-136.181,1568.651-138.408,1567.127-140.532Z" transform="translate(-1559.8 252.312)"/><path class="b" d="M1696.969-280.262a1.75,1.75,0,0,0-.244-.991c-.818-1.333-2.981-1.121-4.232-.7-3.119,1.043-5.567,4.049-7.12,6.815-3.336,5.934-3.548,15.768-3.447,22.476l.054,3.55a.877.877,0,0,1-.344.723.876.876,0,0,1-.784.166l-3.439-.883c-5.916-1.519-10.943-.406-13.11,5.284,6.9.027,13.452,2.992,15.92,9.934,7.242,20.353-16.489,25.886-31.387,26.617-13.972.686-35.109-2.638-38.57-19.084-1.619-7.7-1.424-16.916-1.316-24.792.109-7.991.407-16,1.12-23.962.4-4.468,1.194-9.7,3.506-13.605a24.654,24.654,0,0,1,20.027-11.59c10.416-.255,19.134,7.513,16.739,18.354-1.222,5.533-5.309,10.363-11.463,9.263a7.819,7.819,0,0,1-3.7-1.707c-2.415-2.056-2.873-4.876-2.241-7.694a5.474,5.474,0,0,0-1.753,3.394,6.343,6.343,0,0,0,3.554,6.5,4.2,4.2,0,0,0,2.393.492l6.008-.461a.889.889,0,0,1,.863.468.888.888,0,0,1-.074.979l-3.642,4.8c-2.149,2.833-3.331,6.315-2.27,9.624a12.087,12.087,0,0,1,2.574-7.593c7.994-10.524,18.557-12.971,10.962-28.013l-3.787-7.5a.892.892,0,0,1,.172-1.05.89.89,0,0,1,.417-.237.909.909,0,0,1-.417-.238.891.891,0,0,1-.172-1.05l3.787-7.5c2.128-4.214,2.828-7.438,2.561-10.13l-3.687.629c2.064,10.609-6.551,18.164-16.823,17.913a24.655,24.655,0,0,1-20.027-11.59,19.742,19.742,0,0,1-1.707-3.84q-6.97-.182-13.861-.783-.064,4.1-.1,8.192c11.3.912,11.3,15.885,0,16.8.068,10.475.384,20.946.441,31.421.04,7.437.023,14.879-.262,22.312-.193,5.019-.332,10.849-1.594,15.7a17.85,17.85,0,0,1-6.514,9.989,41.066,41.066,0,0,0,6.594,6c5.042-4.872,13.114-2.552,15.437,5.609h72.781a26.94,26.94,0,0,1,10.4-8.778C1689.445-224.517,1677.023-274.168,1696.969-280.262Z" transform="translate(-1571.142 319.605)"/></g></svg>