<svg xmlns="http://www.w3.org/2000/svg" width="38.393" height="29.641" viewBox="0 0 38.393 29.641"><defs><style>.a{fill:#fdd594;stroke:rgba(0,0,0,0);}</style></defs><path class="a" d="M1159.4,860.211a2.587,2.587,0,0,1-3.763-.02,1.715,1.715,0,0,0-1.054,2.908c1.052,1.171,2.57,3.25,2.873,3.523,0,0,1.865-2.336,2.946-3.49a1.708,1.708,0,0,0-1-2.921Zm-3.936,25.429a9.866,9.866,0,1,1,2.612-2.315,8.753,8.753,0,0,0,1.31,1.16,11.583,11.583,0,1,0-2.616,2.39,12.466,12.466,0,0,1-1.306-1.234Zm9.169-19.964a11.492,11.492,0,0,0-6.4,1.936,12.223,12.223,0,0,1,1.308,1.234,9.864,9.864,0,1,1-2.612,2.315,9.162,9.162,0,0,0-1.31-1.16,11.56,11.56,0,1,0,9.011-4.326Z" transform="translate(-1138.306 -859.669)"/></svg>